<svg width="349" height="113" viewBox="0 0 349 113" fill="none" xmlns="http://www.w3.org/2000/svg">
<path d="M31.8 86C29.2 86 26.6667 85.7666 24.2 85.3C21.7333 84.8333 19.3667 84.0333 17.1 82.8999C14.9 81.7666 12.8 80.2666 10.8 78.3999C8.8 76.5333 6.96667 74.2333 5.3 71.5C3.56667 68.5666 2.23333 65.5 1.3 62.3C0.433333 59.1 0 55.7 0 42.0999C0 39.3666 0.166667 29.6999 0.5 27.0999C0.833333 24.4333 1.5 21.8666 2.5 19.3999C3.5 16.9333 4.86667 14.6333 6.6 12.4999C8.4 10.2999 10.7 8.33328 13.5 6.59995C14.7667 5.73328 16.3333 4.96661 18.2 4.29995C20.0667 3.56661 22.0667 2.93328 24.2 2.39995C26.3333 1.86661 28.5 1.46661 30.7 1.19995C32.9667 0.866616 35.1333 0.699951 37.2 0.699951C38.8667 0.699951 40 0.866616 40.6 1.19995C41.2667 1.53328 42.0667 2.36662 43 3.69995C44.3333 5.63328 45.1333 7.13328 45.4 8.19995C45.7333 9.19995 45.9 10.1 45.9 10.9C45.9 11.8333 45.8 12.7666 45.6 13.7C45.4 14.6333 45.2 15.5666 45 16.5C44.6 18.0999 43.5667 18.9999 41.9 19.1999C41.4333 19.2666 40.7 19.3333 39.7 19.3999C38.7 19.4666 37.6333 19.5666 36.5 19.6999C35.3667 19.7666 34.2667 19.8333 33.2 19.8999C32.1333 19.9666 31.3333 20.0333 30.8 20.0999C27.3333 20.4333 24.6667 21.7666 22.8 24.0999C21 26.3666 20.1 36.5333 20.1 40.5999C20.1 55.0666 21.2667 58.7 23.6 61.5C25.9333 64.2999 29.6 65.7 34.6 65.7C35.7333 65.7 36.8667 65.6333 38 65.5C39.1333 65.3666 40.2667 65.3 41.4 65.3C42.1333 65.3 42.8333 65.5333 43.5 66C44.2333 66.4666 44.7333 67.0999 45 67.8999C45.1333 68.4333 45.3 69.0666 45.5 69.8C45.7 70.4666 45.9 71.2 46.1 72C46.3 72.7333 46.4667 73.4333 46.6 74.0999C46.7333 74.6999 46.8 75.1333 46.8 75.3999C46.8 75.8666 46.7667 76.2666 46.7 76.5999C46.7 76.9333 46.6333 77.2999 46.5 77.7C46.3667 78.1 46.1667 78.5666 45.9 79.0999C45.7 79.6333 45.4 80.2999 45 81.0999C44.0667 82.7666 43.3667 83.8666 42.9 84.3999C42.4333 84.9333 41.8333 85.2666 41.1 85.3999C40.3667 85.5333 39.7333 85.6333 39.2 85.7C38.6667 85.7666 38.0667 85.8333 37.4 85.8999C36.7333 85.9666 35.9667 86 35.1 86C34.2333 86 33.1333 86 31.8 86Z" fill="black"/>
<path d="M86.732 63.5C86.4654 63.3 86.132 63.1333 85.732 63C85.332 62.8666 84.732 62.7666 83.932 62.7C83.1987 62.5666 82.1987 62.4666 80.932 62.3999C79.6654 62.3333 78.0654 62.2999 76.132 62.2999C75.3987 62.2999 74.832 62.5666 74.432 63.0999C74.0987 63.5666 73.932 64.1 73.932 64.7C73.932 65.2999 73.932 66.2333 73.932 67.5C73.932 68.7 73.8987 70.0666 73.832 71.5999C73.832 73.1333 73.7987 74.7333 73.732 76.3999C73.732 77.9999 73.6987 79.4999 73.632 80.8999C73.5654 81.9666 73.1987 82.7666 72.532 83.3C71.8654 83.8333 70.6654 84.4666 68.932 85.2C68.2654 85.4666 67.5654 85.7333 66.832 86C66.0987 86.2 65.332 86.3 64.532 86.3C63.6654 86.3 62.8987 86.1333 62.232 85.8C62.032 85.7333 61.6987 85.5999 61.232 85.3999C60.7654 85.1333 60.2654 84.8666 59.732 84.5999C59.1987 84.2666 58.6987 84 58.232 83.8C57.7654 83.5333 57.432 83.3333 57.232 83.2C56.632 82.8666 56.0987 82.3666 55.632 81.7C55.1654 81.0333 54.8987 80.3333 54.832 79.5999C54.6987 78.4666 54.5654 76.6333 54.432 74.0999C54.3654 71.4999 54.2987 68.5666 54.232 65.2999C54.1654 61.9666 54.0654 58.4999 53.932 54.8999C53.8654 51.2333 53.7987 47.7999 53.732 44.5999C53.6654 41.4 53.5987 38.5999 53.532 36.1999C53.532 33.7999 53.532 32.1333 53.532 31.1999C53.532 30.1333 53.7987 29.2666 54.332 28.5999C54.8654 27.8666 56.232 27.0333 58.432 26.0999C59.6987 25.5666 60.7654 25.1666 61.632 24.8999C62.4987 24.5666 63.232 24.3333 63.832 24.1999C64.432 23.9999 64.9654 23.8999 65.432 23.8999C65.8987 23.8333 66.432 23.7999 67.032 23.7999C67.632 23.7999 68.332 23.8333 69.132 23.8999C69.932 23.9666 70.6654 24.1333 71.332 24.3999C72.0654 24.6666 72.6654 25.0666 73.132 25.5999C73.6654 26.1333 73.932 26.8333 73.932 27.7V45.3999C73.932 46.3999 74.2654 47.1666 74.932 47.6999C75.6654 48.2333 76.4654 48.5333 77.332 48.5999C78.2654 48.6666 79.332 48.7333 80.532 48.7999C81.7987 48.8666 83.232 48.8999 84.832 48.8999C85.832 48.8999 86.7987 48.6666 87.732 48.1999C88.6654 47.7333 89.132 46.7333 89.132 45.1999V29.7999C89.132 28.6666 89.4654 27.8333 90.132 27.2999C90.8654 26.7666 92.4987 26.2333 95.032 25.6999C96.0987 25.5 97.0654 25.3666 97.932 25.2999C98.7987 25.1666 99.4987 25.0999 100.032 25.0999C101.165 25.0999 102.232 25.2666 103.232 25.5999C104.232 25.9333 105.299 26.3333 106.432 26.7999C107.565 27.2666 108.299 27.8999 108.632 28.6999C109.032 29.4333 109.232 30.3333 109.232 31.4C109.232 32.2666 109.165 33.9666 109.032 36.5C108.965 39.0333 108.865 41.9666 108.732 45.2999C108.599 48.6333 108.432 52.2 108.232 56C108.032 59.7333 107.832 63.3333 107.632 66.7999C107.432 70.2666 107.232 73.3999 107.032 76.2C106.899 78.9333 106.799 80.9333 106.732 82.2C106.599 84.2 105.565 85.5333 103.632 86.2C102.165 86.7333 100.765 87.1333 99.432 87.3999C98.1654 87.7333 97.032 87.8999 96.032 87.8999C95.432 87.8999 94.732 87.8333 93.932 87.7C93.132 87.6333 92.3654 87.4666 91.632 87.2C90.8987 86.9333 90.2654 86.5666 89.732 86.0999C89.2654 85.6333 88.9987 85.0333 88.932 84.3L87.932 66C87.8654 64.8666 87.4654 64.0333 86.732 63.5Z" fill="black"/>
<path d="M115.432 82C115.432 80.8666 115.465 79.2 115.532 77C115.599 74.7333 115.699 72.0999 115.832 69.0999C115.965 66.0999 116.099 62.8666 116.232 59.3999C116.432 55.9333 116.599 52.3999 116.732 48.7999C116.932 45.1999 117.099 41.6666 117.232 38.2C117.365 34.7333 117.499 31.4999 117.632 28.4999C117.632 27.8999 117.865 27.3333 118.332 26.7999C118.865 26.2666 119.499 25.9666 120.232 25.9C122.899 25.6999 125.832 25.4666 129.032 25.1999C132.299 24.9333 135.565 24.6999 138.832 24.5C142.099 24.2999 145.232 24.1333 148.232 24C151.232 23.7999 153.832 23.6999 156.032 23.6999C156.832 23.6999 157.499 23.7666 158.032 23.8999C158.565 23.9666 159.032 24.1666 159.432 24.5C159.899 24.8333 160.365 25.3333 160.832 25.9999C161.299 26.5999 161.899 27.4333 162.632 28.4999C163.099 29.2333 163.332 29.9333 163.332 30.5999C163.332 31.5333 163.065 32.8333 162.532 34.4999C161.999 36.0999 161.532 37.4666 161.132 38.5999C160.799 39.5333 160.332 40.2666 159.732 40.7999C159.199 41.2666 158.365 41.5666 157.232 41.6999L139.432 43.0999C138.299 43.2333 137.532 43.5666 137.132 44.0999C136.799 44.5666 136.632 45.3333 136.632 46.3999C136.632 47.7333 136.799 48.7 137.132 49.2999C137.532 49.8999 138.232 50.2666 139.232 50.3999C140.365 50.5333 141.765 50.6333 143.432 50.7C145.165 50.7 146.899 50.7333 148.632 50.7999C150.365 50.7999 151.999 50.8333 153.532 50.8999C155.065 50.8999 156.299 50.9333 157.232 51C158.832 51.0666 159.999 51.6333 160.732 52.6999C161.465 53.6999 161.832 54.8666 161.832 56.2C161.832 56.7333 161.732 57.2666 161.532 57.7999C161.399 58.2666 161.265 58.7666 161.132 59.2999C160.732 60.4333 160.165 61.1666 159.432 61.5C158.699 61.8333 157.832 62.0666 156.832 62.2C155.432 62.3333 153.899 62.4333 152.232 62.5C150.632 62.5666 149.032 62.6666 147.432 62.7999C145.899 62.8666 144.465 62.9333 143.132 63C141.865 63.0666 140.932 63.1333 140.332 63.2C139.199 63.3333 138.399 63.6999 137.932 64.2999C137.532 64.8999 137.332 65.9333 137.332 67.3999C137.332 69.1333 137.665 70.2666 138.332 70.8C138.999 71.3333 139.999 71.5999 141.332 71.5999C144.332 71.5999 147.265 71.4999 150.132 71.2999C153.065 71.0333 155.999 70.8999 158.932 70.8999C160.265 70.8999 161.232 71.1 161.832 71.5C162.499 71.8333 162.899 72.1999 163.032 72.5999C163.432 73.7333 163.765 75.0333 164.032 76.5C164.299 77.9 164.432 79.0333 164.432 79.8999C164.432 80.8333 164.299 81.6333 164.032 82.3C163.832 82.9666 163.232 83.9999 162.232 85.3999C161.099 86.9999 160.165 88.0333 159.432 88.5C158.699 88.9666 157.699 89.2333 156.432 89.3C154.899 89.4333 152.999 89.5333 150.732 89.5999C148.532 89.6666 146.065 89.7333 143.332 89.8C140.665 89.8666 137.799 89.8999 134.732 89.8999C131.732 89.8999 128.632 89.8999 125.432 89.8999C124.832 89.8999 123.965 89.6 122.832 89C121.699 88.4666 120.565 87.8 119.432 87C118.365 86.2 117.432 85.3666 116.632 84.5C115.832 83.5666 115.432 82.7333 115.432 82Z" fill="black"/>
<path d="M196.229 64.5C194.429 64.5 193.062 64.8333 192.129 65.5C191.262 66.1666 190.829 67.3666 190.829 69.0999C190.829 70.9666 190.929 72.8666 191.129 74.8C191.329 76.6666 191.429 78.5666 191.429 80.5C191.429 81.3 191.229 82.0666 190.829 82.8C190.429 83.5333 189.862 84 189.129 84.2C188.262 84.3999 187.196 84.6333 185.929 84.8999C184.729 85.0999 183.496 85.3 182.229 85.5C181.029 85.6333 179.862 85.7666 178.729 85.8999C177.662 86.0333 176.862 86.0999 176.329 86.0999C175.196 86.0999 174.329 85.9 173.729 85.5C173.129 85.1 172.296 84.1333 171.229 82.5999C170.562 81.6666 170.096 80.8333 169.829 80.0999C169.562 79.3666 169.429 78.4333 169.429 77.3C169.429 76.1 169.496 74.2333 169.629 71.7C169.829 69.1666 170.062 66.2999 170.329 63.0999C170.596 59.8999 170.896 56.5333 171.229 53C171.562 49.3999 171.896 45.9666 172.229 42.6999C172.562 39.4333 172.862 36.4666 173.129 33.7999C173.396 31.1333 173.629 29.0999 173.829 27.7C173.896 26.9666 174.229 26.3666 174.829 25.9C175.496 25.3666 176.196 25.0333 176.929 24.8999C180.929 24.5666 184.929 24.1999 188.929 23.7999C192.996 23.3333 197.062 23.1 201.129 23.1C203.796 23.1 206.429 23.3333 209.029 23.7999C211.629 24.2666 214.029 25.1666 216.229 26.4999C219.029 28.1666 221.262 30.3333 222.929 32.9999C224.596 35.6666 225.429 38.5999 225.429 41.7999C225.429 44.7999 224.896 47.3999 223.829 49.5999C222.762 51.7999 221.462 53.7333 219.929 55.3999C218.662 56.7999 217.796 57.8333 217.329 58.5C216.929 59.0999 216.729 59.7666 216.729 60.4999C216.729 61.1666 216.862 61.9333 217.129 62.7999C217.396 63.6666 217.962 65.1666 218.829 67.3C220.762 71.9 222.929 76.1333 225.329 80C225.662 80.5333 225.862 81.0333 225.929 81.5C226.062 81.9 226.129 82.4 226.129 83C226.129 83.2 226.096 83.4333 226.029 83.7C225.962 83.8999 225.796 84.1666 225.529 84.5C225.329 84.8333 224.962 85.2999 224.429 85.8999C223.896 86.4333 223.196 87.1333 222.329 88C221.329 89 220.496 89.7999 219.829 90.3999C219.162 90.9999 218.462 91.4333 217.729 91.7C217.062 91.9666 216.262 92.1333 215.329 92.2C214.462 92.2666 213.296 92.3 211.829 92.3C210.696 92.3 209.696 92.2 208.829 92C207.962 91.8666 207.196 91.4999 206.529 90.8999C205.862 90.3666 205.262 89.5333 204.729 88.3999C204.196 87.2666 203.629 85.7 203.029 83.7C202.296 81.1666 201.662 78.3999 201.129 75.3999C200.596 72.3999 199.929 69.4333 199.129 66.5C198.996 65.8333 198.696 65.3333 198.229 65C197.829 64.6666 197.162 64.5 196.229 64.5ZM190.629 45.6999C190.629 48.0333 190.796 49.5999 191.129 50.3999C191.529 51.2 192.496 51.5999 194.029 51.5999C194.362 51.5999 194.929 51.5666 195.729 51.4999C196.529 51.4333 197.362 51.3666 198.229 51.2999C199.162 51.1666 199.996 51.0666 200.729 51C201.529 50.8666 202.062 50.7666 202.329 50.7C203.462 50.4333 204.329 49.8333 204.929 48.8999C205.529 47.8999 205.829 46.8333 205.829 45.6999C205.829 44.0333 205.262 42.7999 204.129 41.9999C203.729 41.7333 203.329 41.5333 202.929 41.3999C202.529 41.2666 201.929 41.1666 201.129 41.0999C200.396 41.0333 199.429 41 198.229 41C197.096 40.9333 195.596 40.8999 193.729 40.8999C192.996 40.8999 192.396 41.0666 191.929 41.3999C191.529 41.7333 191.229 42.1333 191.029 42.5999C190.829 43.0666 190.696 43.6 190.629 44.2C190.629 44.7333 190.629 45.2333 190.629 45.6999Z" fill="black"/>
<path d="M257.362 64.5C255.562 64.5 254.195 64.8333 253.262 65.5C252.395 66.1666 251.962 67.3666 251.962 69.0999C251.962 70.9666 252.062 72.8666 252.262 74.8C252.462 76.6666 252.562 78.5666 252.562 80.5C252.562 81.3 252.362 82.0666 251.962 82.8C251.562 83.5333 250.995 84 250.262 84.2C249.395 84.3999 248.328 84.6333 247.062 84.8999C245.862 85.0999 244.628 85.3 243.362 85.5C242.162 85.6333 240.995 85.7666 239.862 85.8999C238.795 86.0333 237.995 86.0999 237.462 86.0999C236.328 86.0999 235.462 85.9 234.862 85.5C234.262 85.1 233.428 84.1333 232.362 82.5999C231.695 81.6666 231.228 80.8333 230.962 80.0999C230.695 79.3666 230.562 78.4333 230.562 77.3C230.562 76.1 230.628 74.2333 230.762 71.7C230.962 69.1666 231.195 66.2999 231.462 63.0999C231.728 59.8999 232.028 56.5333 232.362 53C232.695 49.3999 233.028 45.9666 233.362 42.6999C233.695 39.4333 233.995 36.4666 234.262 33.7999C234.528 31.1333 234.762 29.0999 234.962 27.7C235.028 26.9666 235.362 26.3666 235.962 25.9C236.628 25.3666 237.328 25.0333 238.062 24.8999C242.062 24.5666 246.062 24.1999 250.062 23.7999C254.128 23.3333 258.195 23.1 262.262 23.1C264.928 23.1 267.562 23.3333 270.162 23.7999C272.762 24.2666 275.162 25.1666 277.362 26.4999C280.162 28.1666 282.395 30.3333 284.062 32.9999C285.728 35.6666 286.562 38.5999 286.562 41.7999C286.562 44.7999 286.028 47.3999 284.962 49.5999C283.895 51.7999 282.595 53.7333 281.062 55.3999C279.795 56.7999 278.928 57.8333 278.462 58.5C278.062 59.0999 277.862 59.7666 277.862 60.4999C277.862 61.1666 277.995 61.9333 278.262 62.7999C278.528 63.6666 279.095 65.1666 279.962 67.3C281.895 71.9 284.062 76.1333 286.462 80C286.795 80.5333 286.995 81.0333 287.062 81.5C287.195 81.9 287.262 82.4 287.262 83C287.262 83.2 287.228 83.4333 287.162 83.7C287.095 83.8999 286.928 84.1666 286.662 84.5C286.462 84.8333 286.095 85.2999 285.562 85.8999C285.028 86.4333 284.328 87.1333 283.462 88C282.462 89 281.628 89.7999 280.962 90.3999C280.295 90.9999 279.595 91.4333 278.862 91.7C278.195 91.9666 277.395 92.1333 276.462 92.2C275.595 92.2666 274.428 92.3 272.962 92.3C271.828 92.3 270.828 92.2 269.962 92C269.095 91.8666 268.328 91.4999 267.662 90.8999C266.995 90.3666 266.395 89.5333 265.862 88.3999C265.328 87.2666 264.762 85.7 264.162 83.7C263.428 81.1666 262.795 78.3999 262.262 75.3999C261.728 72.3999 261.062 69.4333 260.262 66.5C260.128 65.8333 259.828 65.3333 259.362 65C258.962 64.6666 258.295 64.5 257.362 64.5ZM251.762 45.6999C251.762 48.0333 251.928 49.5999 252.262 50.3999C252.662 51.2 253.628 51.5999 255.162 51.5999C255.495 51.5999 256.062 51.5666 256.862 51.4999C257.662 51.4333 258.495 51.3666 259.362 51.2999C260.295 51.1666 261.128 51.0666 261.862 51C262.662 50.8666 263.195 50.7666 263.462 50.7C264.595 50.4333 265.462 49.8333 266.062 48.8999C266.662 47.8999 266.962 46.8333 266.962 45.6999C266.962 44.0333 266.395 42.7999 265.262 41.9999C264.862 41.7333 264.462 41.5333 264.062 41.3999C263.662 41.2666 263.062 41.1666 262.262 41.0999C261.528 41.0333 260.562 41 259.362 41C258.228 40.9333 256.728 40.8999 254.862 40.8999C254.128 40.8999 253.528 41.0666 253.062 41.3999C252.662 41.7333 252.362 42.1333 252.162 42.5999C251.962 43.0666 251.828 43.6 251.762 44.2C251.762 44.7333 251.762 45.2333 251.762 45.6999Z" fill="black"/>
<path d="M302.734 102.4C302.734 102.067 302.768 101.633 302.834 101.1C302.901 100.567 303.101 99.7333 303.434 98.5999C303.568 97.8666 303.868 97.0333 304.334 96.0999C304.868 95.1666 305.801 94.5999 307.134 94.3999C309.468 93.9999 311.468 93.6666 313.134 93.3999C314.801 93.2 316.201 93 317.334 92.8C318.534 92.6 319.501 92.3999 320.234 92.2C320.968 92.0666 321.601 91.8666 322.134 91.5999C324.001 90.6666 325.368 89.6666 326.234 88.5999C327.101 87.5999 327.534 86.1333 327.534 84.2C327.534 82.6666 327.268 81.6 326.734 81C326.201 80.3333 325.168 80 323.634 80C322.901 80 321.668 80.1 319.934 80.3C318.201 80.4333 316.368 80.6333 314.434 80.8999C312.501 81.0999 310.668 81.3 308.934 81.5C307.268 81.6333 306.134 81.7 305.534 81.7C304.734 81.7 303.968 81.6333 303.234 81.5C302.568 81.3 301.868 80.9999 301.134 80.5999C300.401 80.1333 299.601 79.5 298.734 78.7C297.934 77.8333 297.001 76.7 295.934 75.3C294.934 74.0333 294.134 72.9666 293.534 72.0999C292.934 71.2333 292.468 70.4333 292.134 69.7C291.801 68.8999 291.568 68.1 291.434 67.3C291.368 66.5 291.334 65.5666 291.334 64.5C291.334 63.3666 291.334 61.8333 291.334 59.9C291.401 57.9666 291.468 55.8333 291.534 53.5C291.601 51.1666 291.668 48.7999 291.734 46.3999C291.801 43.9333 291.868 41.6666 291.934 39.5999C292.068 37.4666 292.134 35.6666 292.134 34.2C292.201 32.6666 292.268 31.6999 292.334 31.2999C292.401 30.6999 292.601 30.0999 292.934 29.4999C293.334 28.8999 293.834 28.4666 294.434 28.1999C295.168 27.8666 295.934 27.5666 296.734 27.2999C297.534 26.9666 298.301 26.6666 299.034 26.4C300.834 25.7999 302.068 25.3999 302.734 25.1999C303.468 24.9999 304.201 24.8999 304.934 24.8999C305.401 24.8999 305.901 24.9999 306.434 25.1999C306.968 25.3333 307.801 25.6333 308.934 26.0999C309.734 26.4333 310.401 26.7666 310.934 27.0999C311.468 27.4333 311.901 27.7999 312.234 28.1999C312.568 28.5999 312.801 29.0999 312.934 29.6999C313.068 30.2999 313.134 31.0333 313.134 31.9C313.134 34.1666 313.068 36.6666 312.934 39.3999C312.868 42.0666 312.768 44.7 312.634 47.2999C312.501 49.8999 312.368 52.3333 312.234 54.5999C312.168 56.7999 312.134 58.5666 312.134 59.9C312.134 60.2999 312.168 60.7333 312.234 61.1999C312.368 61.6666 312.568 62.1 312.834 62.5C313.168 62.9 313.634 63.2333 314.234 63.5C314.834 63.7666 315.601 63.8999 316.534 63.8999C317.068 63.8999 317.801 63.8999 318.734 63.8999C319.668 63.8333 320.634 63.7666 321.634 63.7C322.634 63.6333 323.568 63.5333 324.434 63.3999C325.368 63.2666 326.068 63.0999 326.534 62.8999C327.134 62.5666 327.634 62.1333 328.034 61.5999C328.434 61.0666 328.634 60.4333 328.634 59.7C328.634 57.5 328.634 55.1666 328.634 52.6999C328.634 50.2333 328.601 47.8333 328.534 45.4999C328.534 43.0999 328.534 40.8333 328.534 38.6999C328.534 36.5666 328.534 34.7333 328.534 33.1999C328.534 32.2666 328.601 31.4999 328.734 30.8999C328.934 30.2333 329.201 29.6666 329.534 29.1999C329.934 28.7333 330.468 28.2999 331.134 27.8999C331.801 27.4999 332.634 27.0999 333.634 26.6999C334.968 26.0999 335.968 25.6999 336.634 25.4999C337.301 25.2333 337.968 25.0999 338.634 25.0999C339.301 25.0999 339.901 25.1666 340.434 25.2999C340.968 25.4333 341.868 25.7333 343.134 26.1999C345.068 26.9333 346.368 27.6666 347.034 28.3999C347.701 29.1333 348.034 30.3999 348.034 32.1999C348.034 32.8666 348.001 34.7333 347.934 37.7999C347.868 40.7999 347.768 44.4333 347.634 48.6999C347.568 52.9666 347.468 57.5999 347.334 62.5999C347.201 67.5333 347.034 72.2333 346.834 76.7C346.701 81.1 346.568 84.9666 346.434 88.3C346.301 91.6333 346.201 93.8666 346.134 95C346.068 95.4666 345.934 95.9333 345.734 96.3999C345.601 96.8666 345.334 97.4 344.934 98C344.534 98.6666 344.001 99.3999 343.334 100.2C342.668 101.067 341.801 102.067 340.734 103.2C339.401 104.667 338.268 105.833 337.334 106.7C336.468 107.633 335.634 108.367 334.834 108.9C334.101 109.433 333.368 109.833 332.634 110.1C331.968 110.367 331.168 110.567 330.234 110.7C327.434 111.167 324.368 111.567 321.034 111.9C317.768 112.233 314.801 112.4 312.134 112.4C310.601 112.4 309.468 112.133 308.734 111.6C308.001 111.067 307.001 110.033 305.734 108.5C305.134 107.7 304.634 107.033 304.234 106.5C303.834 106.033 303.501 105.6 303.234 105.2C303.034 104.8 302.901 104.367 302.834 103.9C302.768 103.5 302.734 103 302.734 102.4Z" fill="black"/>
</svg>
