<svg width="350" height="112" viewBox="0 0 350 112" fill="none" xmlns="http://www.w3.org/2000/svg">
<path d="M32.7829 85.3175C30.1829 85.3175 27.6496 85.0841 25.1829 84.6175C22.7162 84.1508 20.3496 83.3508 18.0829 82.2175C15.8829 81.0841 13.7829 79.5841 11.7829 77.7175C9.78291 75.8508 7.94958 73.5508 6.28291 70.8175C4.54958 67.8841 3.21624 64.8175 2.28291 61.6175C1.41624 58.4175 0.98291 55.0175 0.98291 41.4175C0.98291 38.6841 1.14958 29.0175 1.48291 26.4175C1.81624 23.7508 2.48291 21.1841 3.48291 18.7175C4.48291 16.2508 5.84958 13.9508 7.58291 11.8175C9.38291 9.61745 11.6829 7.65078 14.4829 5.91745C15.7496 5.05078 17.3162 4.28412 19.1829 3.61745C21.0496 2.88412 23.0496 2.25079 25.1829 1.71745C27.3162 1.18412 29.4829 0.784117 31.6829 0.517454C33.9496 0.184121 36.1162 0.0174561 38.1829 0.0174561C39.8496 0.0174561 40.9829 0.184121 41.5829 0.517454C42.2496 0.850787 43.0496 1.68412 43.9829 3.01745C45.3162 4.95078 46.1162 6.45079 46.3829 7.51745C46.7162 8.51745 46.8829 9.41746 46.8829 10.2175C46.8829 11.1508 46.7829 12.0841 46.5829 13.0175C46.3829 13.9508 46.1829 14.8841 45.9829 15.8175C45.5829 17.4175 44.5496 18.3175 42.8829 18.5175C42.4162 18.5841 41.6829 18.6508 40.6829 18.7175C39.6829 18.7841 38.6162 18.8841 37.4829 19.0175C36.3496 19.0841 35.2496 19.1508 34.1829 19.2175C33.1162 19.2841 32.3162 19.3508 31.7829 19.4175C28.3162 19.7508 25.6496 21.0841 23.7829 23.4175C21.9829 25.6841 21.0829 35.8508 21.0829 39.9175C21.0829 54.3841 22.2496 58.0175 24.5829 60.8175C26.9162 63.6175 30.5829 65.0175 35.5829 65.0175C36.7162 65.0175 37.8496 64.9508 38.9829 64.8175C40.1162 64.6841 41.2496 64.6175 42.3829 64.6175C43.1162 64.6175 43.8162 64.8508 44.4829 65.3175C45.2162 65.7841 45.7162 66.4174 45.9829 67.2175C46.1162 67.7508 46.2829 68.3841 46.4829 69.1175C46.6829 69.7841 46.8829 70.5175 47.0829 71.3175C47.2829 72.0508 47.4496 72.7508 47.5829 73.4174C47.7162 74.0174 47.7829 74.4508 47.7829 74.7175C47.7829 75.1841 47.7496 75.5841 47.6829 75.9174C47.6829 76.2508 47.6162 76.6175 47.4829 77.0175C47.3496 77.4175 47.1496 77.8841 46.8829 78.4174C46.6829 78.9508 46.3829 79.6174 45.9829 80.4174C45.0496 82.0841 44.3496 83.1841 43.8829 83.7175C43.4162 84.2508 42.8162 84.5841 42.0829 84.7175C41.3496 84.8508 40.7162 84.9508 40.1829 85.0175C39.6496 85.0841 39.0496 85.1508 38.3829 85.2175C37.7162 85.2841 36.9496 85.3175 36.0829 85.3175C35.2162 85.3175 34.1162 85.3175 32.7829 85.3175Z" fill="url(#paint0_linear_306_2351)"/>
<path d="M87.7149 62.8175C87.4483 62.6175 87.1149 62.4508 86.7149 62.3175C86.3149 62.1841 85.7149 62.0841 84.9149 62.0175C84.1816 61.8841 83.1816 61.7841 81.9149 61.7175C80.6483 61.6508 79.0483 61.6174 77.1149 61.6174C76.3816 61.6174 75.8149 61.8841 75.4149 62.4174C75.0816 62.8841 74.9149 63.4175 74.9149 64.0175C74.9149 64.6175 74.9149 65.5508 74.9149 66.8175C74.9149 68.0175 74.8816 69.3841 74.8149 70.9174C74.8149 72.4508 74.7816 74.0508 74.7149 75.7175C74.7149 77.3175 74.6816 78.8175 74.6149 80.2175C74.5483 81.2841 74.1816 82.0841 73.5149 82.6175C72.8483 83.1508 71.6483 83.7841 69.9149 84.5175C69.2483 84.7841 68.5483 85.0508 67.8149 85.3175C67.0816 85.5175 66.3149 85.6175 65.5149 85.6175C64.6483 85.6175 63.8816 85.4508 63.2149 85.1175C63.0149 85.0508 62.6816 84.9174 62.2149 84.7175C61.7483 84.4508 61.2483 84.1841 60.7149 83.9174C60.1816 83.5841 59.6816 83.3175 59.2149 83.1175C58.7483 82.8508 58.4149 82.6508 58.2149 82.5175C57.6149 82.1841 57.0816 81.6841 56.6149 81.0175C56.1483 80.3508 55.8816 79.6508 55.8149 78.9174C55.6816 77.7841 55.5483 75.9508 55.4149 73.4174C55.3483 70.8175 55.2816 67.8841 55.2149 64.6174C55.1483 61.2841 55.0483 57.8175 54.9149 54.2175C54.8483 50.5508 54.7816 47.1175 54.7149 43.9175C54.6483 40.7175 54.5816 37.9175 54.5149 35.5175C54.5149 33.1175 54.5149 31.4508 54.5149 30.5175C54.5149 29.4508 54.7816 28.5841 55.3149 27.9174C55.8483 27.1841 57.2149 26.3508 59.4149 25.4175C60.6816 24.8841 61.7483 24.4841 62.6149 24.2174C63.4816 23.8841 64.2149 23.6508 64.8149 23.5175C65.4149 23.3175 65.9483 23.2175 66.4149 23.2175C66.8816 23.1508 67.4149 23.1175 68.0149 23.1175C68.6149 23.1175 69.3149 23.1508 70.1149 23.2175C70.9149 23.2841 71.6483 23.4508 72.3149 23.7174C73.0483 23.9841 73.6483 24.3841 74.1149 24.9175C74.6483 25.4508 74.9149 26.1508 74.9149 27.0175V44.7175C74.9149 45.7175 75.2483 46.4841 75.9149 47.0175C76.6483 47.5508 77.4483 47.8508 78.3149 47.9175C79.2483 47.9841 80.3149 48.0508 81.5149 48.1175C82.7816 48.1841 84.2149 48.2175 85.8149 48.2175C86.8149 48.2175 87.7816 47.9841 88.7149 47.5175C89.6483 47.0508 90.1149 46.0508 90.1149 44.5175V29.1175C90.1149 27.9841 90.4483 27.1508 91.1149 26.6175C91.8483 26.0841 93.4816 25.5508 96.0149 25.0175C97.0816 24.8175 98.0483 24.6841 98.9149 24.6175C99.7816 24.4841 100.482 24.4175 101.015 24.4175C102.148 24.4175 103.215 24.5841 104.215 24.9175C105.215 25.2508 106.282 25.6508 107.415 26.1175C108.548 26.5841 109.282 27.2175 109.615 28.0175C110.015 28.7508 110.215 29.6508 110.215 30.7175C110.215 31.5841 110.148 33.2841 110.015 35.8175C109.948 38.3508 109.848 41.2841 109.715 44.6175C109.582 47.9508 109.415 51.5175 109.215 55.3175C109.015 59.0508 108.815 62.6508 108.615 66.1174C108.415 69.5841 108.215 72.7175 108.015 75.5175C107.882 78.2508 107.782 80.2508 107.715 81.5175C107.582 83.5175 106.548 84.8508 104.615 85.5175C103.148 86.0508 101.748 86.4508 100.415 86.7175C99.1483 87.0508 98.0149 87.2175 97.0149 87.2175C96.4149 87.2175 95.7149 87.1508 94.9149 87.0175C94.1149 86.9508 93.3483 86.7841 92.6149 86.5175C91.8816 86.2508 91.2483 85.8841 90.7149 85.4174C90.2483 84.9508 89.9816 84.3508 89.9149 83.6175L88.9149 65.3175C88.8483 64.1841 88.4483 63.3508 87.7149 62.8175Z" fill="url(#paint1_linear_306_2351)"/>
<path d="M116.415 81.3175C116.415 80.1841 116.448 78.5175 116.515 76.3175C116.582 74.0508 116.682 71.4174 116.815 68.4174C116.948 65.4174 117.082 62.1841 117.215 58.7175C117.415 55.2508 117.582 51.7175 117.715 48.1175C117.915 44.5175 118.082 40.9841 118.215 37.5175C118.348 34.0508 118.482 30.8175 118.615 27.8175C118.615 27.2175 118.848 26.6508 119.315 26.1175C119.848 25.5841 120.482 25.2841 121.215 25.2175C123.882 25.0175 126.815 24.7841 130.015 24.5175C133.282 24.2508 136.548 24.0175 139.815 23.8175C143.082 23.6175 146.215 23.4508 149.215 23.3175C152.215 23.1175 154.815 23.0175 157.015 23.0175C157.815 23.0175 158.482 23.0841 159.015 23.2175C159.548 23.2841 160.015 23.4841 160.415 23.8175C160.882 24.1508 161.348 24.6508 161.815 25.3175C162.282 25.9175 162.882 26.7508 163.615 27.8175C164.082 28.5508 164.315 29.2508 164.315 29.9175C164.315 30.8508 164.048 32.1508 163.515 33.8175C162.982 35.4175 162.515 36.7841 162.115 37.9175C161.782 38.8508 161.315 39.5841 160.715 40.1175C160.182 40.5841 159.348 40.8841 158.215 41.0175L140.415 42.4175C139.282 42.5508 138.515 42.8841 138.115 43.4175C137.782 43.8841 137.615 44.6508 137.615 45.7175C137.615 47.0508 137.782 48.0175 138.115 48.6175C138.515 49.2175 139.215 49.5841 140.215 49.7175C141.348 49.8508 142.748 49.9508 144.415 50.0175C146.148 50.0175 147.882 50.0508 149.615 50.1175C151.348 50.1175 152.982 50.1508 154.515 50.2175C156.048 50.2175 157.282 50.2508 158.215 50.3175C159.815 50.3841 160.982 50.9508 161.715 52.0175C162.448 53.0175 162.815 54.1841 162.815 55.5175C162.815 56.0508 162.715 56.5841 162.515 57.1175C162.382 57.5841 162.248 58.0841 162.115 58.6175C161.715 59.7508 161.148 60.4841 160.415 60.8175C159.682 61.1508 158.815 61.3841 157.815 61.5175C156.415 61.6508 154.882 61.7508 153.215 61.8175C151.615 61.8841 150.015 61.9841 148.415 62.1174C146.882 62.1841 145.448 62.2508 144.115 62.3175C142.848 62.3841 141.915 62.4508 141.315 62.5175C140.182 62.6508 139.382 63.0174 138.915 63.6174C138.515 64.2174 138.315 65.2508 138.315 66.7175C138.315 68.4508 138.648 69.5841 139.315 70.1175C139.982 70.6508 140.982 70.9174 142.315 70.9174C145.315 70.9174 148.248 70.8174 151.115 70.6174C154.048 70.3508 156.982 70.2175 159.915 70.2175C161.248 70.2175 162.215 70.4175 162.815 70.8175C163.482 71.1508 163.882 71.5174 164.015 71.9174C164.415 73.0508 164.748 74.3508 165.015 75.8175C165.282 77.2175 165.415 78.3508 165.415 79.2175C165.415 80.1508 165.282 80.9508 165.015 81.6175C164.815 82.2841 164.215 83.3175 163.215 84.7175C162.082 86.3175 161.148 87.3508 160.415 87.8175C159.682 88.2841 158.682 88.5508 157.415 88.6175C155.882 88.7508 153.982 88.8508 151.715 88.9174C149.515 88.9841 147.048 89.0508 144.315 89.1175C141.648 89.1841 138.782 89.2175 135.715 89.2175C132.715 89.2175 129.615 89.2175 126.415 89.2175C125.815 89.2175 124.948 88.9175 123.815 88.3175C122.682 87.7841 121.548 87.1175 120.415 86.3175C119.348 85.5175 118.415 84.6841 117.615 83.8175C116.815 82.8841 116.415 82.0508 116.415 81.3175Z" fill="url(#paint2_linear_306_2351)"/>
<path d="M197.212 63.8175C195.412 63.8175 194.045 64.1508 193.112 64.8175C192.245 65.4841 191.812 66.6841 191.812 68.4174C191.812 70.2841 191.912 72.1841 192.112 74.1175C192.312 75.9841 192.412 77.8841 192.412 79.8175C192.412 80.6175 192.212 81.3841 191.812 82.1175C191.412 82.8508 190.845 83.3175 190.112 83.5175C189.245 83.7175 188.178 83.9508 186.912 84.2175C185.712 84.4174 184.478 84.6175 183.212 84.8175C182.012 84.9508 180.845 85.0841 179.712 85.2175C178.645 85.3508 177.845 85.4174 177.312 85.4174C176.178 85.4174 175.312 85.2175 174.712 84.8175C174.112 84.4175 173.278 83.4508 172.212 81.9174C171.545 80.9841 171.078 80.1508 170.812 79.4174C170.545 78.6841 170.412 77.7508 170.412 76.6175C170.412 75.4175 170.478 73.5508 170.612 71.0175C170.812 68.4841 171.045 65.6174 171.312 62.4174C171.578 59.2174 171.878 55.8508 172.212 52.3175C172.545 48.7175 172.878 45.2841 173.212 42.0175C173.545 38.7508 173.845 35.7841 174.112 33.1175C174.378 30.4508 174.612 28.4175 174.812 27.0175C174.878 26.2841 175.212 25.6841 175.812 25.2175C176.478 24.6841 177.178 24.3508 177.912 24.2174C181.912 23.8841 185.912 23.5175 189.912 23.1175C193.978 22.6508 198.045 22.4175 202.112 22.4175C204.778 22.4175 207.412 22.6508 210.012 23.1175C212.612 23.5841 215.012 24.4841 217.212 25.8175C220.012 27.4841 222.245 29.6508 223.912 32.3175C225.578 34.9841 226.412 37.9174 226.412 41.1175C226.412 44.1175 225.878 46.7175 224.812 48.9175C223.745 51.1175 222.445 53.0508 220.912 54.7175C219.645 56.1175 218.778 57.1508 218.312 57.8175C217.912 58.4175 217.712 59.0841 217.712 59.8175C217.712 60.4841 217.845 61.2508 218.112 62.1174C218.378 62.9841 218.945 64.4841 219.812 66.6175C221.745 71.2175 223.912 75.4508 226.312 79.3175C226.645 79.8508 226.845 80.3508 226.912 80.8175C227.045 81.2175 227.112 81.7175 227.112 82.3175C227.112 82.5175 227.078 82.7508 227.012 83.0175C226.945 83.2175 226.778 83.4841 226.512 83.8175C226.312 84.1508 225.945 84.6175 225.412 85.2175C224.878 85.7508 224.178 86.4508 223.312 87.3175C222.312 88.3175 221.478 89.1175 220.812 89.7175C220.145 90.3175 219.445 90.7508 218.712 91.0175C218.045 91.2841 217.245 91.4508 216.312 91.5175C215.445 91.5841 214.278 91.6175 212.812 91.6175C211.678 91.6175 210.678 91.5175 209.812 91.3175C208.945 91.1841 208.178 90.8175 207.512 90.2175C206.845 89.6841 206.245 88.8508 205.712 87.7175C205.178 86.5841 204.612 85.0175 204.012 83.0175C203.278 80.4841 202.645 77.7175 202.112 74.7175C201.578 71.7175 200.912 68.7508 200.112 65.8175C199.978 65.1508 199.678 64.6508 199.212 64.3175C198.812 63.9841 198.145 63.8175 197.212 63.8175ZM191.612 45.0175C191.612 47.3508 191.778 48.9175 192.112 49.7175C192.512 50.5175 193.478 50.9175 195.012 50.9175C195.345 50.9175 195.912 50.8841 196.712 50.8175C197.512 50.7508 198.345 50.6841 199.212 50.6175C200.145 50.4841 200.978 50.3841 201.712 50.3175C202.512 50.1841 203.045 50.0841 203.312 50.0175C204.445 49.7508 205.312 49.1508 205.912 48.2175C206.512 47.2175 206.812 46.1508 206.812 45.0175C206.812 43.3508 206.245 42.1175 205.112 41.3175C204.712 41.0508 204.312 40.8508 203.912 40.7175C203.512 40.5841 202.912 40.4841 202.112 40.4175C201.378 40.3508 200.412 40.3175 199.212 40.3175C198.078 40.2508 196.578 40.2175 194.712 40.2175C193.978 40.2175 193.378 40.3841 192.912 40.7175C192.512 41.0508 192.212 41.4508 192.012 41.9175C191.812 42.3841 191.678 42.9175 191.612 43.5175C191.612 44.0508 191.612 44.5508 191.612 45.0175Z" fill="url(#paint3_linear_306_2351)"/>
<path d="M258.345 63.8175C256.545 63.8175 255.178 64.1508 254.245 64.8175C253.378 65.4841 252.945 66.6841 252.945 68.4174C252.945 70.2841 253.045 72.1841 253.245 74.1175C253.445 75.9841 253.545 77.8841 253.545 79.8175C253.545 80.6175 253.345 81.3841 252.945 82.1175C252.545 82.8508 251.978 83.3175 251.245 83.5175C250.378 83.7175 249.311 83.9508 248.045 84.2175C246.845 84.4174 245.611 84.6175 244.345 84.8175C243.145 84.9508 241.978 85.0841 240.845 85.2175C239.778 85.3508 238.978 85.4174 238.445 85.4174C237.311 85.4174 236.445 85.2175 235.845 84.8175C235.245 84.4175 234.411 83.4508 233.345 81.9174C232.678 80.9841 232.211 80.1508 231.945 79.4174C231.678 78.6841 231.545 77.7508 231.545 76.6175C231.545 75.4175 231.611 73.5508 231.745 71.0175C231.945 68.4841 232.178 65.6174 232.445 62.4174C232.711 59.2174 233.011 55.8508 233.345 52.3175C233.678 48.7175 234.011 45.2841 234.345 42.0175C234.678 38.7508 234.978 35.7841 235.245 33.1175C235.511 30.4508 235.745 28.4175 235.945 27.0175C236.011 26.2841 236.345 25.6841 236.945 25.2175C237.611 24.6841 238.311 24.3508 239.045 24.2174C243.045 23.8841 247.045 23.5175 251.045 23.1175C255.111 22.6508 259.178 22.4175 263.245 22.4175C265.911 22.4175 268.545 22.6508 271.145 23.1175C273.745 23.5841 276.145 24.4841 278.345 25.8175C281.145 27.4841 283.378 29.6508 285.045 32.3175C286.711 34.9841 287.545 37.9174 287.545 41.1175C287.545 44.1175 287.011 46.7175 285.945 48.9175C284.878 51.1175 283.578 53.0508 282.045 54.7175C280.778 56.1175 279.911 57.1508 279.445 57.8175C279.045 58.4175 278.845 59.0841 278.845 59.8175C278.845 60.4841 278.978 61.2508 279.245 62.1174C279.511 62.9841 280.078 64.4841 280.945 66.6175C282.878 71.2175 285.045 75.4508 287.445 79.3175C287.778 79.8508 287.978 80.3508 288.045 80.8175C288.178 81.2175 288.245 81.7175 288.245 82.3175C288.245 82.5175 288.211 82.7508 288.145 83.0175C288.078 83.2175 287.911 83.4841 287.645 83.8175C287.445 84.1508 287.078 84.6175 286.545 85.2175C286.011 85.7508 285.311 86.4508 284.445 87.3175C283.445 88.3175 282.611 89.1175 281.945 89.7175C281.278 90.3175 280.578 90.7508 279.845 91.0175C279.178 91.2841 278.378 91.4508 277.445 91.5175C276.578 91.5841 275.411 91.6175 273.945 91.6175C272.811 91.6175 271.811 91.5175 270.945 91.3175C270.078 91.1841 269.311 90.8175 268.645 90.2175C267.978 89.6841 267.378 88.8508 266.845 87.7175C266.311 86.5841 265.745 85.0175 265.145 83.0175C264.411 80.4841 263.778 77.7175 263.245 74.7175C262.711 71.7175 262.045 68.7508 261.245 65.8175C261.111 65.1508 260.811 64.6508 260.345 64.3175C259.945 63.9841 259.278 63.8175 258.345 63.8175ZM252.745 45.0175C252.745 47.3508 252.911 48.9175 253.245 49.7175C253.645 50.5175 254.611 50.9175 256.145 50.9175C256.478 50.9175 257.045 50.8841 257.845 50.8175C258.645 50.7508 259.478 50.6841 260.345 50.6175C261.278 50.4841 262.111 50.3841 262.845 50.3175C263.645 50.1841 264.178 50.0841 264.445 50.0175C265.578 49.7508 266.445 49.1508 267.045 48.2175C267.645 47.2175 267.945 46.1508 267.945 45.0175C267.945 43.3508 267.378 42.1175 266.245 41.3175C265.845 41.0508 265.445 40.8508 265.045 40.7175C264.645 40.5841 264.045 40.4841 263.245 40.4175C262.511 40.3508 261.545 40.3175 260.345 40.3175C259.211 40.2508 257.711 40.2175 255.845 40.2175C255.111 40.2175 254.511 40.3841 254.045 40.7175C253.645 41.0508 253.345 41.4508 253.145 41.9175C252.945 42.3841 252.811 42.9175 252.745 43.5175C252.745 44.0508 252.745 44.5508 252.745 45.0175Z" fill="url(#paint4_linear_306_2351)"/>
<path d="M303.717 101.717C303.717 101.384 303.751 100.951 303.817 100.417C303.884 99.8841 304.084 99.0508 304.417 97.9174C304.551 97.1841 304.851 96.3508 305.317 95.4174C305.851 94.4841 306.784 93.9174 308.117 93.7175C310.451 93.3175 312.451 92.9841 314.117 92.7175C315.784 92.5175 317.184 92.3175 318.317 92.1175C319.517 91.9175 320.484 91.7175 321.217 91.5175C321.951 91.3841 322.584 91.1841 323.117 90.9174C324.984 89.9841 326.351 88.9841 327.217 87.9174C328.084 86.9174 328.517 85.4508 328.517 83.5175C328.517 81.9841 328.251 80.9175 327.717 80.3175C327.184 79.6508 326.151 79.3175 324.617 79.3175C323.884 79.3175 322.651 79.4175 320.917 79.6175C319.184 79.7508 317.351 79.9508 315.417 80.2175C313.484 80.4174 311.651 80.6175 309.917 80.8175C308.251 80.9508 307.117 81.0175 306.517 81.0175C305.717 81.0175 304.951 80.9508 304.217 80.8175C303.551 80.6175 302.851 80.3175 302.117 79.9174C301.384 79.4508 300.584 78.8175 299.717 78.0175C298.917 77.1508 297.984 76.0175 296.917 74.6175C295.917 73.3508 295.117 72.2841 294.517 71.4174C293.917 70.5508 293.451 69.7508 293.117 69.0175C292.784 68.2175 292.551 67.4175 292.417 66.6175C292.351 65.8175 292.317 64.8841 292.317 63.8175C292.317 62.6841 292.317 61.1508 292.317 59.2175C292.384 57.2841 292.451 55.1508 292.517 52.8175C292.584 50.4841 292.651 48.1175 292.717 45.7175C292.784 43.2508 292.851 40.9841 292.917 38.9175C293.051 36.7841 293.117 34.9841 293.117 33.5175C293.184 31.9841 293.251 31.0175 293.317 30.6175C293.384 30.0175 293.584 29.4174 293.917 28.8174C294.317 28.2174 294.817 27.7841 295.417 27.5175C296.151 27.1841 296.917 26.8841 297.717 26.6175C298.517 26.2841 299.284 25.9841 300.017 25.7175C301.817 25.1175 303.051 24.7175 303.717 24.5175C304.451 24.3175 305.184 24.2174 305.917 24.2174C306.384 24.2174 306.884 24.3175 307.417 24.5175C307.951 24.6508 308.784 24.9508 309.917 25.4175C310.717 25.7508 311.384 26.0841 311.917 26.4175C312.451 26.7508 312.884 27.1175 313.217 27.5175C313.551 27.9175 313.784 28.4175 313.917 29.0175C314.051 29.6175 314.117 30.3508 314.117 31.2175C314.117 33.4841 314.051 35.9841 313.917 38.7175C313.851 41.3841 313.751 44.0175 313.617 46.6175C313.484 49.2175 313.351 51.6508 313.217 53.9175C313.151 56.1175 313.117 57.8841 313.117 59.2175C313.117 59.6175 313.151 60.0508 313.217 60.5175C313.351 60.9841 313.551 61.4175 313.817 61.8175C314.151 62.2175 314.617 62.5508 315.217 62.8175C315.817 63.0841 316.584 63.2175 317.517 63.2175C318.051 63.2175 318.784 63.2175 319.717 63.2175C320.651 63.1508 321.617 63.0841 322.617 63.0175C323.617 62.9508 324.551 62.8508 325.417 62.7175C326.351 62.5841 327.051 62.4175 327.517 62.2175C328.117 61.8841 328.617 61.4508 329.017 60.9175C329.417 60.3841 329.617 59.7508 329.617 59.0175C329.617 56.8175 329.617 54.4841 329.617 52.0175C329.617 49.5508 329.584 47.1508 329.517 44.8175C329.517 42.4175 329.517 40.1508 329.517 38.0175C329.517 35.8841 329.517 34.0508 329.517 32.5174C329.517 31.5841 329.584 30.8174 329.717 30.2174C329.917 29.5508 330.184 28.9841 330.517 28.5175C330.917 28.0508 331.451 27.6175 332.117 27.2175C332.784 26.8175 333.617 26.4175 334.617 26.0175C335.951 25.4174 336.951 25.0175 337.617 24.8175C338.284 24.5508 338.951 24.4175 339.617 24.4175C340.284 24.4175 340.884 24.4841 341.417 24.6175C341.951 24.7508 342.851 25.0508 344.117 25.5175C346.051 26.2508 347.351 26.9841 348.017 27.7175C348.684 28.4508 349.017 29.7175 349.017 31.5175C349.017 32.1841 348.984 34.0508 348.917 37.1175C348.851 40.1175 348.751 43.7508 348.617 48.0175C348.551 52.2841 348.451 56.9174 348.317 61.9174C348.184 66.8508 348.017 71.5508 347.817 76.0175C347.684 80.4175 347.551 84.2841 347.417 87.6175C347.284 90.9508 347.184 93.1841 347.117 94.3175C347.051 94.7841 346.917 95.2508 346.717 95.7175C346.584 96.1841 346.317 96.7175 345.917 97.3175C345.517 97.9841 344.984 98.7175 344.317 99.5175C343.651 100.384 342.784 101.384 341.717 102.517C340.384 103.984 339.251 105.151 338.317 106.017C337.451 106.951 336.617 107.684 335.817 108.217C335.084 108.751 334.351 109.151 333.617 109.417C332.951 109.684 332.151 109.884 331.217 110.017C328.417 110.484 325.351 110.884 322.017 111.217C318.751 111.551 315.784 111.717 313.117 111.717C311.584 111.717 310.451 111.451 309.717 110.917C308.984 110.384 307.984 109.351 306.717 107.817C306.117 107.017 305.617 106.351 305.217 105.817C304.817 105.351 304.484 104.917 304.217 104.517C304.017 104.117 303.884 103.684 303.817 103.217C303.751 102.817 303.717 102.317 303.717 101.717Z" fill="url(#paint5_linear_306_2351)"/>
<defs>
<linearGradient id="paint0_linear_306_2351" x1="25.9829" y1="0.0174634" x2="348.983" y2="121.017" gradientUnits="userSpaceOnUse">
<stop stop-color="white"/>
<stop offset="1" stop-color="white"/>
</linearGradient>
<linearGradient id="paint1_linear_306_2351" x1="25.9829" y1="0.0174634" x2="348.983" y2="121.017" gradientUnits="userSpaceOnUse">
<stop stop-color="white"/>
<stop offset="1" stop-color="white"/>
</linearGradient>
<linearGradient id="paint2_linear_306_2351" x1="25.9829" y1="0.0174634" x2="348.983" y2="121.017" gradientUnits="userSpaceOnUse">
<stop stop-color="white"/>
<stop offset="1" stop-color="white"/>
</linearGradient>
<linearGradient id="paint3_linear_306_2351" x1="25.9829" y1="0.0174634" x2="348.983" y2="121.017" gradientUnits="userSpaceOnUse">
<stop stop-color="white"/>
<stop offset="1" stop-color="white"/>
</linearGradient>
<linearGradient id="paint4_linear_306_2351" x1="25.9829" y1="0.0174634" x2="348.983" y2="121.017" gradientUnits="userSpaceOnUse">
<stop stop-color="white"/>
<stop offset="1" stop-color="white"/>
</linearGradient>
<linearGradient id="paint5_linear_306_2351" x1="25.9829" y1="0.0174634" x2="348.983" y2="121.017" gradientUnits="userSpaceOnUse">
<stop stop-color="white"/>
<stop offset="1" stop-color="white"/>
</linearGradient>
</defs>
</svg>
