<svg width="349" height="113" viewBox="0 0 349 113" fill="none" xmlns="http://www.w3.org/2000/svg">
<path d="M31.8 85.6999C29.2 85.6999 26.6667 85.4666 24.2 84.9999C21.7333 84.5332 19.3667 83.7332 17.1 82.5999C14.9 81.4666 12.8 79.9666 10.8 78.0999C8.8 76.2332 6.96667 73.9332 5.3 71.1999C3.56667 68.2666 2.23333 65.1999 1.3 61.9999C0.433333 58.7999 0 55.3999 0 41.7999C0 39.0666 0.166667 29.3999 0.5 26.7999C0.833333 24.1332 1.5 21.5666 2.5 19.0999C3.5 16.6332 4.86667 14.3332 6.6 12.1999C8.4 9.9999 10.7 8.03323 13.5 6.2999C14.7667 5.43323 16.3333 4.66656 18.2 3.9999C20.0667 3.26657 22.0667 2.63323 24.2 2.0999C26.3333 1.56656 28.5 1.16656 30.7 0.8999C32.9667 0.566567 35.1333 0.399902 37.2 0.399902C38.8667 0.399902 40 0.566567 40.6 0.8999C41.2667 1.23323 42.0667 2.06657 43 3.3999C44.3333 5.33323 45.1333 6.83323 45.4 7.8999C45.7333 8.8999 45.9 9.7999 45.9 10.5999C45.9 11.5332 45.8 12.4666 45.6 13.3999C45.4 14.3332 45.2 15.2666 45 16.1999C44.6 17.7999 43.5667 18.6999 41.9 18.8999C41.4333 18.9666 40.7 19.0332 39.7 19.0999C38.7 19.1666 37.6333 19.2666 36.5 19.3999C35.3667 19.4666 34.2667 19.5332 33.2 19.5999C32.1333 19.6666 31.3333 19.7332 30.8 19.7999C27.3333 20.1332 24.6667 21.4666 22.8 23.7999C21 26.0666 20.1 36.2332 20.1 40.2999C20.1 54.7666 21.2667 58.3999 23.6 61.1999C25.9333 63.9999 29.6 65.3999 34.6 65.3999C35.7333 65.3999 36.8667 65.3332 38 65.1999C39.1333 65.0666 40.2667 64.9999 41.4 64.9999C42.1333 64.9999 42.8333 65.2332 43.5 65.6999C44.2333 66.1666 44.7333 66.7999 45 67.5999C45.1333 68.1332 45.3 68.7666 45.5 69.4999C45.7 70.1666 45.9 70.8999 46.1 71.6999C46.3 72.4332 46.4667 73.1332 46.6 73.7999C46.7333 74.3999 46.8 74.8332 46.8 75.0999C46.8 75.5666 46.7667 75.9666 46.7 76.2999C46.7 76.6332 46.6333 76.9999 46.5 77.3999C46.3667 77.7999 46.1667 78.2666 45.9 78.7999C45.7 79.3332 45.4 79.9999 45 80.7999C44.0667 82.4666 43.3667 83.5666 42.9 84.0999C42.4333 84.6332 41.8333 84.9666 41.1 85.0999C40.3667 85.2332 39.7333 85.3332 39.2 85.3999C38.6667 85.4666 38.0667 85.5332 37.4 85.5999C36.7333 85.6666 35.9667 85.6999 35.1 85.6999C34.2333 85.6999 33.1333 85.6999 31.8 85.6999Z" fill="url(#paint0_linear_37_231)"/>
<path d="M86.732 63.1999C86.4654 62.9999 86.132 62.8332 85.732 62.6999C85.332 62.5666 84.732 62.4666 83.932 62.3999C83.1987 62.2666 82.1987 62.1666 80.932 62.0999C79.6654 62.0332 78.0654 61.9999 76.132 61.9999C75.3987 61.9999 74.832 62.2666 74.432 62.7999C74.0987 63.2666 73.932 63.7999 73.932 64.3999C73.932 64.9999 73.932 65.9332 73.932 67.1999C73.932 68.3999 73.8987 69.7666 73.832 71.2999C73.832 72.8332 73.7987 74.4332 73.732 76.0999C73.732 77.6999 73.6987 79.1999 73.632 80.5999C73.5654 81.6666 73.1987 82.4666 72.532 82.9999C71.8654 83.5332 70.6654 84.1666 68.932 84.8999C68.2654 85.1666 67.5654 85.4332 66.832 85.6999C66.0987 85.8999 65.332 85.9999 64.532 85.9999C63.6654 85.9999 62.8987 85.8332 62.232 85.4999C62.032 85.4332 61.6987 85.2999 61.232 85.0999C60.7654 84.8332 60.2654 84.5666 59.732 84.2999C59.1987 83.9666 58.6987 83.6999 58.232 83.4999C57.7654 83.2332 57.432 83.0332 57.232 82.8999C56.632 82.5666 56.0987 82.0666 55.632 81.3999C55.1654 80.7332 54.8987 80.0332 54.832 79.2999C54.6987 78.1666 54.5654 76.3332 54.432 73.7999C54.3654 71.1999 54.2987 68.2666 54.232 64.9999C54.1654 61.6666 54.0654 58.1999 53.932 54.5999C53.8654 50.9332 53.7987 47.4999 53.732 44.2999C53.6654 41.0999 53.5987 38.2999 53.532 35.8999C53.532 33.4999 53.532 31.8332 53.532 30.8999C53.532 29.8332 53.7987 28.9666 54.332 28.2999C54.8654 27.5666 56.232 26.7332 58.432 25.7999C59.6987 25.2666 60.7654 24.8666 61.632 24.5999C62.4987 24.2666 63.232 24.0332 63.832 23.8999C64.432 23.6999 64.9654 23.5999 65.432 23.5999C65.8987 23.5332 66.432 23.4999 67.032 23.4999C67.632 23.4999 68.332 23.5332 69.132 23.5999C69.932 23.6666 70.6654 23.8332 71.332 24.0999C72.0654 24.3666 72.6654 24.7666 73.132 25.2999C73.6654 25.8332 73.932 26.5332 73.932 27.3999V45.0999C73.932 46.0999 74.2654 46.8666 74.932 47.3999C75.6654 47.9332 76.4654 48.2332 77.332 48.2999C78.2654 48.3666 79.332 48.4332 80.532 48.4999C81.7987 48.5666 83.232 48.5999 84.832 48.5999C85.832 48.5999 86.7987 48.3666 87.732 47.8999C88.6654 47.4332 89.132 46.4332 89.132 44.8999V29.4999C89.132 28.3666 89.4654 27.5332 90.132 26.9999C90.8654 26.4666 92.4987 25.9332 95.032 25.3999C96.0987 25.1999 97.0654 25.0666 97.932 24.9999C98.7987 24.8666 99.4987 24.7999 100.032 24.7999C101.165 24.7999 102.232 24.9666 103.232 25.2999C104.232 25.6332 105.299 26.0332 106.432 26.4999C107.565 26.9666 108.299 27.5999 108.632 28.3999C109.032 29.1332 109.232 30.0332 109.232 31.0999C109.232 31.9666 109.165 33.6666 109.032 36.1999C108.965 38.7332 108.865 41.6666 108.732 44.9999C108.599 48.3332 108.432 51.8999 108.232 55.6999C108.032 59.4332 107.832 63.0332 107.632 66.4999C107.432 69.9666 107.232 73.0999 107.032 75.8999C106.899 78.6332 106.799 80.6332 106.732 81.8999C106.599 83.8999 105.565 85.2332 103.632 85.8999C102.165 86.4332 100.765 86.8332 99.432 87.0999C98.1654 87.4332 97.032 87.5999 96.032 87.5999C95.432 87.5999 94.732 87.5332 93.932 87.3999C93.132 87.3332 92.3654 87.1666 91.632 86.8999C90.8987 86.6332 90.2654 86.2666 89.732 85.7999C89.2654 85.3332 88.9987 84.7332 88.932 83.9999L87.932 65.6999C87.8654 64.5666 87.4654 63.7332 86.732 63.1999Z" fill="url(#paint1_linear_37_231)"/>
<path d="M115.432 81.6999C115.432 80.5666 115.465 78.8999 115.532 76.6999C115.599 74.4332 115.699 71.7999 115.832 68.7999C115.965 65.7999 116.099 62.5666 116.232 59.0999C116.432 55.6332 116.599 52.0999 116.732 48.4999C116.932 44.8999 117.099 41.3666 117.232 37.8999C117.365 34.4332 117.499 31.1999 117.632 28.1999C117.632 27.5999 117.865 27.0332 118.332 26.4999C118.865 25.9666 119.499 25.6666 120.232 25.5999C122.899 25.3999 125.832 25.1666 129.032 24.8999C132.299 24.6332 135.565 24.3999 138.832 24.1999C142.099 23.9999 145.232 23.8332 148.232 23.6999C151.232 23.4999 153.832 23.3999 156.032 23.3999C156.832 23.3999 157.499 23.4666 158.032 23.5999C158.565 23.6666 159.032 23.8666 159.432 24.1999C159.899 24.5332 160.365 25.0332 160.832 25.6999C161.299 26.2999 161.899 27.1332 162.632 28.1999C163.099 28.9332 163.332 29.6332 163.332 30.2999C163.332 31.2332 163.065 32.5332 162.532 34.1999C161.999 35.7999 161.532 37.1666 161.132 38.2999C160.799 39.2332 160.332 39.9666 159.732 40.4999C159.199 40.9666 158.365 41.2666 157.232 41.3999L139.432 42.7999C138.299 42.9332 137.532 43.2666 137.132 43.7999C136.799 44.2666 136.632 45.0332 136.632 46.0999C136.632 47.4332 136.799 48.3999 137.132 48.9999C137.532 49.5999 138.232 49.9666 139.232 50.0999C140.365 50.2332 141.765 50.3332 143.432 50.3999C145.165 50.3999 146.899 50.4332 148.632 50.4999C150.365 50.4999 151.999 50.5332 153.532 50.5999C155.065 50.5999 156.299 50.6332 157.232 50.6999C158.832 50.7666 159.999 51.3332 160.732 52.3999C161.465 53.3999 161.832 54.5666 161.832 55.8999C161.832 56.4332 161.732 56.9666 161.532 57.4999C161.399 57.9666 161.265 58.4666 161.132 58.9999C160.732 60.1332 160.165 60.8666 159.432 61.1999C158.699 61.5332 157.832 61.7666 156.832 61.8999C155.432 62.0332 153.899 62.1332 152.232 62.1999C150.632 62.2666 149.032 62.3666 147.432 62.4999C145.899 62.5666 144.465 62.6332 143.132 62.6999C141.865 62.7666 140.932 62.8332 140.332 62.8999C139.199 63.0332 138.399 63.3999 137.932 63.9999C137.532 64.5999 137.332 65.6332 137.332 67.0999C137.332 68.8332 137.665 69.9666 138.332 70.4999C138.999 71.0332 139.999 71.2999 141.332 71.2999C144.332 71.2999 147.265 71.1999 150.132 70.9999C153.065 70.7332 155.999 70.5999 158.932 70.5999C160.265 70.5999 161.232 70.7999 161.832 71.1999C162.499 71.5332 162.899 71.8999 163.032 72.2999C163.432 73.4332 163.765 74.7332 164.032 76.1999C164.299 77.5999 164.432 78.7332 164.432 79.5999C164.432 80.5332 164.299 81.3332 164.032 81.9999C163.832 82.6666 163.232 83.6999 162.232 85.0999C161.099 86.6999 160.165 87.7332 159.432 88.1999C158.699 88.6666 157.699 88.9332 156.432 88.9999C154.899 89.1332 152.999 89.2332 150.732 89.2999C148.532 89.3666 146.065 89.4332 143.332 89.4999C140.665 89.5666 137.799 89.5999 134.732 89.5999C131.732 89.5999 128.632 89.5999 125.432 89.5999C124.832 89.5999 123.965 89.2999 122.832 88.6999C121.699 88.1666 120.565 87.4999 119.432 86.6999C118.365 85.8999 117.432 85.0666 116.632 84.1999C115.832 83.2666 115.432 82.4332 115.432 81.6999Z" fill="url(#paint2_linear_37_231)"/>
<path d="M196.229 64.1999C194.429 64.1999 193.062 64.5332 192.129 65.1999C191.262 65.8666 190.829 67.0666 190.829 68.7999C190.829 70.6666 190.929 72.5666 191.129 74.4999C191.329 76.3666 191.429 78.2666 191.429 80.1999C191.429 80.9999 191.229 81.7666 190.829 82.4999C190.429 83.2332 189.862 83.6999 189.129 83.8999C188.262 84.0999 187.196 84.3332 185.929 84.5999C184.729 84.7999 183.496 84.9999 182.229 85.1999C181.029 85.3332 179.862 85.4666 178.729 85.5999C177.662 85.7332 176.862 85.7999 176.329 85.7999C175.196 85.7999 174.329 85.5999 173.729 85.1999C173.129 84.7999 172.296 83.8332 171.229 82.2999C170.562 81.3666 170.096 80.5332 169.829 79.7999C169.562 79.0666 169.429 78.1332 169.429 76.9999C169.429 75.7999 169.496 73.9332 169.629 71.3999C169.829 68.8666 170.062 65.9999 170.329 62.7999C170.596 59.5999 170.896 56.2332 171.229 52.6999C171.562 49.0999 171.896 45.6666 172.229 42.3999C172.562 39.1332 172.862 36.1666 173.129 33.4999C173.396 30.8332 173.629 28.7999 173.829 27.3999C173.896 26.6666 174.229 26.0666 174.829 25.5999C175.496 25.0666 176.196 24.7332 176.929 24.5999C180.929 24.2666 184.929 23.8999 188.929 23.4999C192.996 23.0332 197.062 22.7999 201.129 22.7999C203.796 22.7999 206.429 23.0332 209.029 23.4999C211.629 23.9666 214.029 24.8666 216.229 26.1999C219.029 27.8666 221.262 30.0332 222.929 32.6999C224.596 35.3666 225.429 38.2999 225.429 41.4999C225.429 44.4999 224.896 47.0999 223.829 49.2999C222.762 51.4999 221.462 53.4332 219.929 55.0999C218.662 56.4999 217.796 57.5332 217.329 58.1999C216.929 58.7999 216.729 59.4666 216.729 60.1999C216.729 60.8666 216.862 61.6332 217.129 62.4999C217.396 63.3666 217.962 64.8666 218.829 66.9999C220.762 71.5999 222.929 75.8332 225.329 79.6999C225.662 80.2332 225.862 80.7332 225.929 81.1999C226.062 81.5999 226.129 82.0999 226.129 82.6999C226.129 82.8999 226.096 83.1332 226.029 83.3999C225.962 83.5999 225.796 83.8666 225.529 84.1999C225.329 84.5332 224.962 84.9999 224.429 85.5999C223.896 86.1332 223.196 86.8332 222.329 87.6999C221.329 88.6999 220.496 89.4999 219.829 90.0999C219.162 90.6999 218.462 91.1332 217.729 91.3999C217.062 91.6666 216.262 91.8332 215.329 91.8999C214.462 91.9666 213.296 91.9999 211.829 91.9999C210.696 91.9999 209.696 91.8999 208.829 91.6999C207.962 91.5666 207.196 91.1999 206.529 90.5999C205.862 90.0666 205.262 89.2332 204.729 88.0999C204.196 86.9666 203.629 85.3999 203.029 83.3999C202.296 80.8666 201.662 78.0999 201.129 75.0999C200.596 72.0999 199.929 69.1332 199.129 66.1999C198.996 65.5332 198.696 65.0332 198.229 64.6999C197.829 64.3666 197.162 64.1999 196.229 64.1999ZM190.629 45.3999C190.629 47.7332 190.796 49.2999 191.129 50.0999C191.529 50.8999 192.496 51.2999 194.029 51.2999C194.362 51.2999 194.929 51.2666 195.729 51.1999C196.529 51.1332 197.362 51.0666 198.229 50.9999C199.162 50.8666 199.996 50.7666 200.729 50.6999C201.529 50.5666 202.062 50.4666 202.329 50.3999C203.462 50.1332 204.329 49.5332 204.929 48.5999C205.529 47.5999 205.829 46.5332 205.829 45.3999C205.829 43.7332 205.262 42.4999 204.129 41.6999C203.729 41.4332 203.329 41.2332 202.929 41.0999C202.529 40.9666 201.929 40.8666 201.129 40.7999C200.396 40.7332 199.429 40.6999 198.229 40.6999C197.096 40.6332 195.596 40.5999 193.729 40.5999C192.996 40.5999 192.396 40.7666 191.929 41.0999C191.529 41.4332 191.229 41.8332 191.029 42.2999C190.829 42.7666 190.696 43.2999 190.629 43.8999C190.629 44.4332 190.629 44.9332 190.629 45.3999Z" fill="url(#paint3_linear_37_231)"/>
<path d="M257.362 64.1999C255.562 64.1999 254.195 64.5332 253.262 65.1999C252.395 65.8666 251.962 67.0666 251.962 68.7999C251.962 70.6666 252.062 72.5666 252.262 74.4999C252.462 76.3666 252.562 78.2666 252.562 80.1999C252.562 80.9999 252.362 81.7666 251.962 82.4999C251.562 83.2332 250.995 83.6999 250.262 83.8999C249.395 84.0999 248.328 84.3332 247.062 84.5999C245.862 84.7999 244.628 84.9999 243.362 85.1999C242.162 85.3332 240.995 85.4666 239.862 85.5999C238.795 85.7332 237.995 85.7999 237.462 85.7999C236.328 85.7999 235.462 85.5999 234.862 85.1999C234.262 84.7999 233.428 83.8332 232.362 82.2999C231.695 81.3666 231.228 80.5332 230.962 79.7999C230.695 79.0666 230.562 78.1332 230.562 76.9999C230.562 75.7999 230.628 73.9332 230.762 71.3999C230.962 68.8666 231.195 65.9999 231.462 62.7999C231.728 59.5999 232.028 56.2332 232.362 52.6999C232.695 49.0999 233.028 45.6666 233.362 42.3999C233.695 39.1332 233.995 36.1666 234.262 33.4999C234.528 30.8332 234.762 28.7999 234.962 27.3999C235.028 26.6666 235.362 26.0666 235.962 25.5999C236.628 25.0666 237.328 24.7332 238.062 24.5999C242.062 24.2666 246.062 23.8999 250.062 23.4999C254.128 23.0332 258.195 22.7999 262.262 22.7999C264.928 22.7999 267.562 23.0332 270.162 23.4999C272.762 23.9666 275.162 24.8666 277.362 26.1999C280.162 27.8666 282.395 30.0332 284.062 32.6999C285.728 35.3666 286.562 38.2999 286.562 41.4999C286.562 44.4999 286.028 47.0999 284.962 49.2999C283.895 51.4999 282.595 53.4332 281.062 55.0999C279.795 56.4999 278.928 57.5332 278.462 58.1999C278.062 58.7999 277.862 59.4666 277.862 60.1999C277.862 60.8666 277.995 61.6332 278.262 62.4999C278.528 63.3666 279.095 64.8666 279.962 66.9999C281.895 71.5999 284.062 75.8332 286.462 79.6999C286.795 80.2332 286.995 80.7332 287.062 81.1999C287.195 81.5999 287.262 82.0999 287.262 82.6999C287.262 82.8999 287.228 83.1332 287.162 83.3999C287.095 83.5999 286.928 83.8666 286.662 84.1999C286.462 84.5332 286.095 84.9999 285.562 85.5999C285.028 86.1332 284.328 86.8332 283.462 87.6999C282.462 88.6999 281.628 89.4999 280.962 90.0999C280.295 90.6999 279.595 91.1332 278.862 91.3999C278.195 91.6666 277.395 91.8332 276.462 91.8999C275.595 91.9666 274.428 91.9999 272.962 91.9999C271.828 91.9999 270.828 91.8999 269.962 91.6999C269.095 91.5666 268.328 91.1999 267.662 90.5999C266.995 90.0666 266.395 89.2332 265.862 88.0999C265.328 86.9666 264.762 85.3999 264.162 83.3999C263.428 80.8666 262.795 78.0999 262.262 75.0999C261.728 72.0999 261.062 69.1332 260.262 66.1999C260.128 65.5332 259.828 65.0332 259.362 64.6999C258.962 64.3666 258.295 64.1999 257.362 64.1999ZM251.762 45.3999C251.762 47.7332 251.928 49.2999 252.262 50.0999C252.662 50.8999 253.628 51.2999 255.162 51.2999C255.495 51.2999 256.062 51.2666 256.862 51.1999C257.662 51.1332 258.495 51.0666 259.362 50.9999C260.295 50.8666 261.128 50.7666 261.862 50.6999C262.662 50.5666 263.195 50.4666 263.462 50.3999C264.595 50.1332 265.462 49.5332 266.062 48.5999C266.662 47.5999 266.962 46.5332 266.962 45.3999C266.962 43.7332 266.395 42.4999 265.262 41.6999C264.862 41.4332 264.462 41.2332 264.062 41.0999C263.662 40.9666 263.062 40.8666 262.262 40.7999C261.528 40.7332 260.562 40.6999 259.362 40.6999C258.228 40.6332 256.728 40.5999 254.862 40.5999C254.128 40.5999 253.528 40.7666 253.062 41.0999C252.662 41.4332 252.362 41.8332 252.162 42.2999C251.962 42.7666 251.828 43.2999 251.762 43.8999C251.762 44.4332 251.762 44.9332 251.762 45.3999Z" fill="url(#paint4_linear_37_231)"/>
<path d="M302.734 102.1C302.734 101.767 302.768 101.333 302.834 100.8C302.901 100.267 303.101 99.4332 303.434 98.2999C303.568 97.5666 303.868 96.7332 304.334 95.7999C304.868 94.8666 305.801 94.2999 307.134 94.0999C309.468 93.6999 311.468 93.3666 313.134 93.0999C314.801 92.8999 316.201 92.6999 317.334 92.4999C318.534 92.2999 319.501 92.0999 320.234 91.8999C320.968 91.7666 321.601 91.5666 322.134 91.2999C324.001 90.3666 325.368 89.3666 326.234 88.2999C327.101 87.2999 327.534 85.8332 327.534 83.8999C327.534 82.3666 327.268 81.2999 326.734 80.6999C326.201 80.0332 325.168 79.6999 323.634 79.6999C322.901 79.6999 321.668 79.7999 319.934 79.9999C318.201 80.1332 316.368 80.3332 314.434 80.5999C312.501 80.7999 310.668 80.9999 308.934 81.1999C307.268 81.3332 306.134 81.3999 305.534 81.3999C304.734 81.3999 303.968 81.3332 303.234 81.1999C302.568 80.9999 301.868 80.6999 301.134 80.2999C300.401 79.8332 299.601 79.1999 298.734 78.3999C297.934 77.5332 297.001 76.3999 295.934 74.9999C294.934 73.7332 294.134 72.6666 293.534 71.7999C292.934 70.9332 292.468 70.1332 292.134 69.3999C291.801 68.5999 291.568 67.7999 291.434 66.9999C291.368 66.1999 291.334 65.2666 291.334 64.1999C291.334 63.0666 291.334 61.5332 291.334 59.5999C291.401 57.6666 291.468 55.5332 291.534 53.1999C291.601 50.8666 291.668 48.4999 291.734 46.0999C291.801 43.6332 291.868 41.3666 291.934 39.2999C292.068 37.1666 292.134 35.3666 292.134 33.8999C292.201 32.3666 292.268 31.3999 292.334 30.9999C292.401 30.3999 292.601 29.7999 292.934 29.1999C293.334 28.5999 293.834 28.1666 294.434 27.8999C295.168 27.5666 295.934 27.2666 296.734 26.9999C297.534 26.6666 298.301 26.3666 299.034 26.0999C300.834 25.4999 302.068 25.0999 302.734 24.8999C303.468 24.6999 304.201 24.5999 304.934 24.5999C305.401 24.5999 305.901 24.6999 306.434 24.8999C306.968 25.0332 307.801 25.3332 308.934 25.7999C309.734 26.1332 310.401 26.4666 310.934 26.7999C311.468 27.1332 311.901 27.4999 312.234 27.8999C312.568 28.2999 312.801 28.7999 312.934 29.3999C313.068 29.9999 313.134 30.7332 313.134 31.5999C313.134 33.8666 313.068 36.3666 312.934 39.0999C312.868 41.7666 312.768 44.3999 312.634 46.9999C312.501 49.5999 312.368 52.0332 312.234 54.2999C312.168 56.4999 312.134 58.2666 312.134 59.5999C312.134 59.9999 312.168 60.4332 312.234 60.8999C312.368 61.3666 312.568 61.7999 312.834 62.1999C313.168 62.5999 313.634 62.9332 314.234 63.1999C314.834 63.4666 315.601 63.5999 316.534 63.5999C317.068 63.5999 317.801 63.5999 318.734 63.5999C319.668 63.5332 320.634 63.4666 321.634 63.3999C322.634 63.3332 323.568 63.2332 324.434 63.0999C325.368 62.9666 326.068 62.7999 326.534 62.5999C327.134 62.2666 327.634 61.8332 328.034 61.2999C328.434 60.7666 328.634 60.1332 328.634 59.3999C328.634 57.1999 328.634 54.8666 328.634 52.3999C328.634 49.9332 328.601 47.5332 328.534 45.1999C328.534 42.7999 328.534 40.5332 328.534 38.3999C328.534 36.2666 328.534 34.4332 328.534 32.8999C328.534 31.9666 328.601 31.1999 328.734 30.5999C328.934 29.9332 329.201 29.3666 329.534 28.8999C329.934 28.4332 330.468 27.9999 331.134 27.5999C331.801 27.1999 332.634 26.7999 333.634 26.3999C334.968 25.7999 335.968 25.3999 336.634 25.1999C337.301 24.9332 337.968 24.7999 338.634 24.7999C339.301 24.7999 339.901 24.8666 340.434 24.9999C340.968 25.1332 341.868 25.4332 343.134 25.8999C345.068 26.6332 346.368 27.3666 347.034 28.0999C347.701 28.8332 348.034 30.0999 348.034 31.8999C348.034 32.5666 348.001 34.4332 347.934 37.4999C347.868 40.4999 347.768 44.1332 347.634 48.3999C347.568 52.6666 347.468 57.2999 347.334 62.2999C347.201 67.2332 347.034 71.9332 346.834 76.3999C346.701 80.7999 346.568 84.6666 346.434 87.9999C346.301 91.3332 346.201 93.5666 346.134 94.6999C346.068 95.1666 345.934 95.6332 345.734 96.0999C345.601 96.5666 345.334 97.0999 344.934 97.6999C344.534 98.3666 344.001 99.0999 343.334 99.8999C342.668 100.767 341.801 101.767 340.734 102.9C339.401 104.367 338.268 105.533 337.334 106.4C336.468 107.333 335.634 108.067 334.834 108.6C334.101 109.133 333.368 109.533 332.634 109.8C331.968 110.067 331.168 110.267 330.234 110.4C327.434 110.867 324.368 111.267 321.034 111.6C317.768 111.933 314.801 112.1 312.134 112.1C310.601 112.1 309.468 111.833 308.734 111.3C308.001 110.767 307.001 109.733 305.734 108.2C305.134 107.4 304.634 106.733 304.234 106.2C303.834 105.733 303.501 105.3 303.234 104.9C303.034 104.5 302.901 104.067 302.834 103.6C302.768 103.2 302.734 102.7 302.734 102.1Z" fill="url(#paint5_linear_37_231)"/>
<defs>
<linearGradient id="paint0_linear_37_231" x1="25" y1="0.39991" x2="348" y2="121.4" gradientUnits="userSpaceOnUse">
<stop stop-color="#FF465E"/>
<stop offset="1" stop-color="#D61371"/>
</linearGradient>
<linearGradient id="paint1_linear_37_231" x1="25" y1="0.39991" x2="348" y2="121.4" gradientUnits="userSpaceOnUse">
<stop stop-color="#FF465E"/>
<stop offset="1" stop-color="#D61371"/>
</linearGradient>
<linearGradient id="paint2_linear_37_231" x1="25" y1="0.39991" x2="348" y2="121.4" gradientUnits="userSpaceOnUse">
<stop stop-color="#FF465E"/>
<stop offset="1" stop-color="#D61371"/>
</linearGradient>
<linearGradient id="paint3_linear_37_231" x1="25" y1="0.39991" x2="348" y2="121.4" gradientUnits="userSpaceOnUse">
<stop stop-color="#FF465E"/>
<stop offset="1" stop-color="#D61371"/>
</linearGradient>
<linearGradient id="paint4_linear_37_231" x1="25" y1="0.39991" x2="348" y2="121.4" gradientUnits="userSpaceOnUse">
<stop stop-color="#FF465E"/>
<stop offset="1" stop-color="#D61371"/>
</linearGradient>
<linearGradient id="paint5_linear_37_231" x1="25" y1="0.39991" x2="348" y2="121.4" gradientUnits="userSpaceOnUse">
<stop stop-color="#FF465E"/>
<stop offset="1" stop-color="#D61371"/>
</linearGradient>
</defs>
</svg>
