<svg width="127" height="118" viewBox="0 0 127 118" fill="none" xmlns="http://www.w3.org/2000/svg">
<path fill-rule="evenodd" clip-rule="evenodd" d="M30.1552 2.30842C37.2523 -0.408169 43.7593 -0.654389 49.1831 1.18787C49.7667 1.24702 50.352 1.387 50.9242 1.61415C67.1329 8.0487 82.1791 19.745 90.1033 37.6871C98.7194 31.3691 115.296 32.3165 124.047 51.1054C131.403 66.8991 124.542 85.6556 108.721 92.9992C92.9003 100.343 74.1119 93.4927 66.7558 77.6989C58.003 58.9065 67.966 45.641 78.36 43.1394C75.6188 36.8576 71.7577 31.4697 67.114 26.9345C66.2062 33.0667 64.1389 39.0522 61.4363 44.6481C58.1907 51.3683 53.9194 57.7608 49.2569 63.5194C58.1348 66.7745 65.9906 77.2204 61.9115 93.9588C57.7988 110.835 40.8076 121.199 23.9606 117.107C7.11357 113.016 -3.20962 96.018 0.90309 79.1417C6.31342 56.9407 25.2794 54.201 34.219 61.1074C39.7535 55.1748 44.9074 48.3407 48.6602 41.2392C44.4396 42.4887 39.2945 42.8055 33.1779 42.1203C29.2383 41.679 24.3318 41.9139 20.053 42.4012C17.9521 42.6404 16.1045 42.9288 14.73 43.1903C14.0392 43.3217 13.5106 43.4383 13.1528 43.5281C13.038 43.557 12.9573 43.579 12.906 43.5936C10.7769 44.4499 8.34077 44.1178 6.51507 42.7007C4.59858 41.2132 3.67695 38.7802 4.1279 36.3989C4.76635 33.0275 6.51417 26.4866 10.3611 19.8495C14.2231 13.1865 20.4476 6.02426 30.1552 2.30842ZM49.9925 20.3553C50.0473 18.1838 48.9649 15.7624 46.8428 14.3276C44.9272 13.0324 41.1888 11.9265 34.7901 14.3757C28.6997 16.707 24.4754 21.3034 21.5665 26.3222C20.965 27.3598 20.4304 28.3983 19.9566 29.4139C24.4263 28.9674 29.8 28.7369 34.6215 29.277C44.3645 30.3684 47.3686 27.9993 48.3168 26.8956C49.6027 25.399 49.9213 23.1739 49.9925 20.3553ZM101.772 47.1155C104.115 47.2623 108.642 48.6827 112.308 56.5544C116.65 65.8758 112.6 76.9459 103.263 81.2801C93.9253 85.6143 82.8364 81.5714 78.4948 72.2499C74.8285 64.3782 76.6581 60.0071 78.0552 58.1245C79.6881 55.9242 81.3562 55.7098 81.7767 55.6557C81.8858 55.6417 81.9109 55.6385 81.8294 55.6141C88.1111 57.4912 94.8067 54.3832 97.4173 48.3785C97.3835 48.4564 97.4021 48.4394 97.4832 48.3651C97.7956 48.079 99.0349 46.9439 101.772 47.1155ZM47.0445 77.0368C48.7446 78.5804 51.3847 82.4824 49.3324 90.9037C46.9 100.885 36.8799 106.944 27.0209 104.55C17.1618 102.155 11.0497 92.1783 13.4821 82.1967C15.5344 73.7755 19.675 71.5203 21.8954 70.9289C24.4625 70.2451 25.8467 71.0711 26.2042 71.2845C26.3039 71.344 26.3237 71.3558 26.2671 71.2739C30.0027 76.6742 37.1995 78.4221 43.0026 75.3385C42.9146 75.3852 42.9376 75.3838 43.0536 75.3767C43.4693 75.3511 45.0789 75.2522 47.0445 77.0368Z" fill="url(#paint0_linear_37_213)"/>
<defs>
<linearGradient id="paint0_linear_37_213" x1="9.12266" y1="7.71872e-06" x2="141.315" y2="17.1057" gradientUnits="userSpaceOnUse">
<stop stop-color="white"/>
<stop offset="1" stop-color="white"/>
</linearGradient>
</defs>
</svg>
