<svg width="24" height="24" viewBox="0 0 24 24" fill="none" xmlns="http://www.w3.org/2000/svg">
<path fill-rule="evenodd" clip-rule="evenodd" d="M12 7C8.13401 7 5 10.134 5 14C5 17.866 8.13401 21 12 21C15.866 21 19 17.866 19 14C19 10.134 15.866 7 12 7ZM3 14C3 9.02944 7.02944 5 12 5C16.9706 5 21 9.02944 21 14C21 18.9706 16.9706 23 12 23C7.02944 23 3 18.9706 3 14Z" fill="black"/>
<path fill-rule="evenodd" clip-rule="evenodd" d="M12 8C12.5523 8 13 8.44772 13 9V13H16C16.5523 13 17 13.4477 17 14C17 14.5523 16.5523 15 16 15H12C11.4477 15 11 14.5523 11 14V9C11 8.44772 11.4477 8 12 8Z" fill="black"/>
<path fill-rule="evenodd" clip-rule="evenodd" d="M12 7C11.4477 7 11 6.55228 11 6L11 2C11 1.44772 11.4477 1 12 1C12.5523 1 13 1.44772 13 2L13 6C13 6.55229 12.5523 7 12 7Z" fill="black"/>
<path fill-rule="evenodd" clip-rule="evenodd" d="M9 2C9 1.44772 9.44772 1 10 1L14 1C14.5523 1 15 1.44772 15 2C15 2.55228 14.5523 3 14 3H10C9.44772 3 9 2.55228 9 2Z" fill="black"/>
<path fill-rule="evenodd" clip-rule="evenodd" d="M6.12129 8.70708C5.73077 9.0976 5.0976 9.0976 4.70708 8.70708L3.70708 7.70708C3.31655 7.31655 3.31655 6.68339 3.70708 6.29286C4.0976 5.90234 4.73077 5.90234 5.12129 6.29286L6.12129 7.29286C6.51182 7.68339 6.51182 8.31655 6.12129 8.70708Z" fill="black"/>
<path fill-rule="evenodd" clip-rule="evenodd" d="M17.7071 8.70708C18.0976 9.0976 18.7308 9.0976 19.1213 8.70708L20.1213 7.70708C20.5118 7.31655 20.5118 6.68339 20.1213 6.29286C19.7308 5.90234 19.0976 5.90234 18.7071 6.29286L17.7071 7.29286C17.3166 7.68339 17.3166 8.31655 17.7071 8.70708Z" fill="black"/>
</svg>
